<svg width="21" height="20" viewBox="0 0 21 20" fill="none" xmlns="http://www.w3.org/2000/svg">
<path fill-rule="evenodd" clip-rule="evenodd" d="M4.9231 14.3846H16.0769L18.2308 19.3077H20.3846L11.6923 0.384644H9.46155L0.692322 19.3077H2.76926L4.9231 14.3846ZM5.61539 12.7693L9.69232 3.61548L10.4615 1.69238H10.5385L11.3077 3.61548L15.3077 12.7693H5.61539Z" fill="#57AD56"/>
<path d="M16.0769 14.3846L16.1915 14.3345L16.1587 14.2596H16.0769V14.3846ZM4.9231 14.3846V14.2596H4.84134L4.80858 14.3345L4.9231 14.3846ZM18.2308 19.3077L18.1163 19.3578L18.149 19.4327H18.2308V19.3077ZM20.3846 19.3077V19.4327H20.5796L20.4982 19.2556L20.3846 19.3077ZM11.6923 0.384644L11.8059 0.332466L11.7725 0.259644H11.6923V0.384644ZM9.46155 0.384644V0.259644H9.38171L9.34813 0.332086L9.46155 0.384644ZM0.692322 19.3077L0.578908 19.2552L0.496625 19.4327H0.692322V19.3077ZM2.76926 19.3077V19.4327H2.85101L2.88378 19.3578L2.76926 19.3077ZM9.69232 3.61548L9.80659 3.66637L9.80838 3.6619L9.69232 3.61548ZM5.61539 12.7693L5.5012 12.7184L5.42288 12.8943H5.61539V12.7693ZM10.4615 1.69238V1.56738H10.3769L10.3455 1.64596L10.4615 1.69238ZM10.5385 1.69238L10.6545 1.64596L10.6231 1.56738H10.5385V1.69238ZM11.3077 3.61548L11.1916 3.66193L11.1932 3.66553L11.3077 3.61548ZM15.3077 12.7693V12.8943H15.4987L15.4223 12.7192L15.3077 12.7693ZM16.0769 14.2596H4.9231V14.5096H16.0769V14.2596ZM18.3453 19.2576L16.1915 14.3345L15.9624 14.4347L18.1163 19.3578L18.3453 19.2576ZM20.3846 19.1827H18.2308V19.4327H20.3846V19.1827ZM11.5787 0.436821L20.2711 19.3599L20.4982 19.2556L11.8059 0.332466L11.5787 0.436821ZM9.46155 0.509644H11.6923V0.259644H9.46155V0.509644ZM0.805736 19.3603L9.57496 0.437201L9.34813 0.332086L0.578908 19.2552L0.805736 19.3603ZM2.76926 19.1827H0.692322V19.4327H2.76926V19.1827ZM4.80858 14.3345L2.65474 19.2576L2.88378 19.3578L5.03762 14.4347L4.80858 14.3345ZM9.57814 3.56462L5.5012 12.7184L5.72957 12.8201L9.80651 3.66634L9.57814 3.56462ZM10.3455 1.64596L9.57626 3.56906L9.80838 3.6619L10.5776 1.73881L10.3455 1.64596ZM10.5385 1.56738H10.4615V1.81738H10.5385V1.56738ZM11.4238 3.56905L10.6545 1.64596L10.4224 1.73881L11.1916 3.6619L11.4238 3.56905ZM15.4223 12.7192L11.4223 3.56543L11.1932 3.66553L15.1932 12.8193L15.4223 12.7192ZM5.61539 12.8943H15.3077V12.6443H5.61539V12.8943Z" fill="#57AD56"/>
</svg>
