<svg width="14" height="13" viewBox="0 0 14 13" fill="none" xmlns="http://www.w3.org/2000/svg">
<path fill-rule="evenodd" clip-rule="evenodd" d="M3.7019 8.99039H10.6731L12.0192 12.0673H13.3654L7.93268 0.240387H6.53845L1.05768 12.0673H2.35574L3.7019 8.99039ZM4.13461 7.98077L6.68268 2.25964L7.16345 1.05771H7.21155L7.69229 2.25964L10.1923 7.98077H4.13461Z" fill="#57AD56"/>
<path d="M10.6731 8.99039L10.7876 8.94028L10.7548 8.86539H10.6731V8.99039ZM3.7019 8.99039V8.86539H3.62015L3.58738 8.94028L3.7019 8.99039ZM12.0192 12.0673L11.9047 12.1174L11.9375 12.1923H12.0192V12.0673ZM13.3654 12.0673V12.1923H13.5603L13.4789 12.0151L13.3654 12.0673ZM7.93268 0.240387L8.04627 0.18821L8.01282 0.115387H7.93268V0.240387ZM6.53845 0.240387V0.115387H6.45861L6.42504 0.187829L6.53845 0.240387ZM1.05768 12.0673L0.944264 12.0148L0.861982 12.1923H1.05768V12.0673ZM2.35574 12.0673V12.1923H2.4375L2.47026 12.1174L2.35574 12.0673ZM6.68268 2.25964L6.79695 2.31054L6.79874 2.30607L6.68268 2.25964ZM4.13461 7.98077L4.02043 7.92992L3.9421 8.10577H4.13461V7.98077ZM7.16345 1.05771V0.932709H7.07882L7.04739 1.01128L7.16345 1.05771ZM7.21155 1.05771L7.32761 1.01129L7.29618 0.932709H7.21155V1.05771ZM7.69229 2.25964L7.57617 2.30609L7.57775 2.3097L7.69229 2.25964ZM10.1923 7.98077V8.10577H10.3833L10.3068 7.93072L10.1923 7.98077ZM10.6731 8.86539H3.7019V9.11539H10.6731V8.86539ZM12.1337 12.0172L10.7876 8.94028L10.5585 9.04049L11.9047 12.1174L12.1337 12.0172ZM13.3654 11.9423H12.0192V12.1923H13.3654V11.9423ZM7.81909 0.292564L13.2518 12.1195L13.4789 12.0151L8.04627 0.18821L7.81909 0.292564ZM6.53845 0.365387H7.93268V0.115387H6.53845V0.365387ZM1.17109 12.1199L6.65187 0.292945L6.42504 0.187829L0.944264 12.0148L1.17109 12.1199ZM2.35574 11.9423H1.05768V12.1923H2.35574V11.9423ZM3.58738 8.94028L2.24122 12.0172L2.47026 12.1174L3.81642 9.04049L3.58738 8.94028ZM6.56849 2.20879L4.02043 7.92992L4.2488 8.03163L6.79686 2.3105L6.56849 2.20879ZM7.04739 1.01128L6.56662 2.21322L6.79874 2.30607L7.27951 1.10413L7.04739 1.01128ZM7.21155 0.932709H7.16345V1.18271H7.21155V0.932709ZM7.80835 2.21322L7.32761 1.01129L7.09549 1.10413L7.57623 2.30606L7.80835 2.21322ZM10.3068 7.93072L7.80683 2.20959L7.57775 2.3097L10.0777 8.03083L10.3068 7.93072ZM4.13461 8.10577H10.1923V7.85577H4.13461V8.10577Z" fill="#57AD56"/>
</svg>
