<svg width="19" height="20" viewBox="0 0 19 20" fill="none" xmlns="http://www.w3.org/2000/svg">
<path fill-rule="evenodd" clip-rule="evenodd" d="M15.3846 9.30774C16.9231 8.46155 17.5385 7 17.5385 5.15393C17.5385 1 14.1539 0.384644 10.6154 0.384644H2.53848C1.23077 0.384644 0.692322 0.769287 0.692322 1.69238V18.1539C0.692322 18.9231 1.07693 19.3077 2.07693 19.3077H12C15.7693 19.3077 18.3846 17.8462 18.3846 14.0769C18.4615 11.7693 17.5385 9.84619 15.3846 9.30774ZM4.69232 3.38464H10.9231C13 3.38464 13.6154 4.15393 13.6154 5.76929C13.6154 7.38464 13 8.15393 10.9231 8.15393H4.69232V3.38464ZM4.69232 16.2307H11.6923C13.9231 16.2307 14.5385 15.4615 14.5385 13.6923C14.5385 11.9231 13.9231 11.0769 11.6923 11.0769H7.07693C5.30771 11.0769 4.69232 11.6154 4.69232 12.7692V16.2307Z" fill="white"/>
</svg>
