<svg width="12" height="13" viewBox="0 0 12 13" fill="none" xmlns="http://www.w3.org/2000/svg">
<path fill-rule="evenodd" clip-rule="evenodd" d="M9.86536 5.81732C10.8269 5.28845 11.2115 4.375 11.2115 3.22116C11.2115 0.625 9.09613 0.240387 6.88461 0.240387H1.83652C1.01923 0.240387 0.682678 0.480774 0.682678 1.05771V11.3462C0.682678 11.8269 0.923065 12.0673 1.54807 12.0673H7.75C10.1057 12.0673 11.7404 11.1538 11.7404 8.79807C11.7885 7.35577 11.2115 6.15384 9.86536 5.81732ZM3.18268 2.11539H7.0769C8.375 2.11539 8.75961 2.59616 8.75961 3.60577C8.75961 4.61539 8.375 5.09616 7.0769 5.09616H3.18268V2.11539ZM3.18268 10.1442H7.55768C8.9519 10.1442 9.33652 9.66345 9.33652 8.55768C9.33652 7.4519 8.9519 6.92307 7.55768 6.92307H4.67307C3.56729 6.92307 3.18268 7.25961 3.18268 7.98074V10.1442Z" fill="black"/>
</svg>
