<svg width="18" height="20" viewBox="0 0 18 20" fill="none" xmlns="http://www.w3.org/2000/svg">
<path d="M15.5385 3.46157C15.8461 3.46157 16 3.38464 16.0769 3.15387L17.0769 0.615413C17.1538 0.461567 17.0769 0.384644 16.9231 0.384644H2.61538C1.30769 0.384644 0.769226 0.769259 0.769226 1.69234V18.1539C0.769226 18.9231 1.15384 19.3077 2.15384 19.3077H15.4615C15.7692 19.3077 15.9231 19.2308 16 19L17 16.4616C17.0769 16.3077 17 16.2308 16.8461 16.2308H4.6923V12.8462C4.6923 11.6923 5.30769 11.1539 7.07692 11.1539H12.3846C12.6923 11.1539 12.8461 11.077 12.9231 10.8462L13.9231 8.38464C14 8.2308 13.9231 8.15387 13.7692 8.15387H4.76923V3.38464H15.5385V3.46157Z" fill="white"/>
</svg>
