<svg width="18" height="20" viewBox="0 0 18 20" fill="none" xmlns="http://www.w3.org/2000/svg">
<path fill-rule="evenodd" clip-rule="evenodd" d="M13.6154 11.6924L17.8462 19C17.9231 19.0769 17.9231 19.3077 17.7692 19.3077H14.1538C13.8462 19.3077 13.7692 19.2308 13.6154 19L9.76923 12.0769H6.30768C4.53845 12.0769 3.92307 12.6154 3.92307 13.7693V19.3077H0.461548C0.230774 19.3077 0 19.0769 0 18.8462V1.69238C0 0.769287 0.538452 0.384644 1.84616 0.384644H9.92307C14.6154 0.384644 17.4615 1.61536 17.4615 6.23083C17.4615 9.76929 15.6923 11.1539 13.6154 11.6924ZM3.84616 9.15393H10.4615C12.9231 9.15393 13.4615 8.23083 13.4615 6.23083C13.4615 4.30774 12.9231 3.38464 10.4615 3.38464H3.84616V9.15393Z" fill="white"/>
</svg>
