<svg width="13" height="13" viewBox="0 0 13 13" fill="none" xmlns="http://www.w3.org/2000/svg">
<path fill-rule="evenodd" clip-rule="evenodd" d="M9.38461 7.30771L12.0288 11.875C12.0769 11.9231 12.0769 12.0673 11.9808 12.0673H9.72116C9.52884 12.0673 9.48077 12.0192 9.38461 11.875L6.98077 7.54807H4.81732C3.71155 7.54807 3.32693 7.88461 3.32693 8.60577V12.0673H1.16345C1.01923 12.0673 0.875 11.9231 0.875 11.7788V1.05771C0.875 0.480774 1.21155 0.240387 2.02884 0.240387H7.07693C10.0096 0.240387 11.7885 1.00961 11.7885 3.89423C11.7885 6.10577 10.6827 6.97116 9.38461 7.30771ZM3.27884 5.72116H7.41345C8.9519 5.72116 9.28845 5.14423 9.28845 3.89423C9.28845 2.69232 8.9519 2.11539 7.41345 2.11539H3.27884V5.72116Z" fill="black"/>
</svg>
