<svg width="15" height="21" viewBox="0 0 15 21" fill="none" xmlns="http://www.w3.org/2000/svg">
<path d="M7.07694 20.6923C4.46155 20.6923 2.38463 20.0769 0.692322 19.0769L1.00001 17.3846C2.76924 18.3846 4.76924 19 7.15386 19C10.6923 19 12.5385 17.3846 12.5385 15.0769C12.5385 10.0769 1.00001 12.6923 1.00001 6.23077C1.00001 3.46154 3.07694 1 7.92309 1C10.1539 1 12.1539 1.38462 13.7692 2.15385L13.4616 3.76923C11.6923 3.07692 10 2.69231 8.00001 2.69231C4.23078 2.69231 2.84617 4.38462 2.84617 6.07692C2.84617 10.8462 14.3846 8.15385 14.3846 14.9231C14.3077 18.3077 11.8462 20.6923 7.07694 20.6923Z" fill="#57AD56" stroke="#57AD56" stroke-width="0.25"/>
</svg>
