<svg width="10" height="14" viewBox="0 0 10 14" fill="none" xmlns="http://www.w3.org/2000/svg">
<path d="M5.04806 13.3077C3.41345 13.3077 2.11537 12.9231 1.05768 12.2981L1.24999 11.2404C2.35576 11.8654 3.60576 12.25 5.09614 12.25C7.30768 12.25 8.46152 11.2404 8.46152 9.79808C8.46152 6.67308 1.24999 8.30769 1.24999 4.26923C1.24999 2.53846 2.54806 1 5.57691 1C6.97114 1 8.22114 1.24038 9.23075 1.72115L9.03845 2.73077C7.93268 2.29808 6.87499 2.05769 5.62499 2.05769C3.26922 2.05769 2.40383 3.11538 2.40383 4.17308C2.40383 7.15385 9.61537 5.47115 9.61537 9.70192C9.56729 11.8173 8.02883 13.3077 5.04806 13.3077Z" fill="#57AD56" stroke="#57AD56" stroke-width="0.25"/>
</svg>
